<svg width="16" height="17" viewBox="0 0 16 17" fill="none" xmlns="http://www.w3.org/2000/svg">
<g id="eye">
<g id="Icon">
<path d="M1.61342 8.97549C1.52262 8.83173 1.47723 8.75985 1.45182 8.64898C1.43273 8.56571 1.43273 8.43437 1.45182 8.3511C1.47723 8.24023 1.52262 8.16835 1.61341 8.02459C2.36369 6.8366 4.59693 3.83337 8.00027 3.83337C11.4036 3.83337 13.6369 6.8366 14.3871 8.02459C14.4779 8.16835 14.5233 8.24023 14.5487 8.3511C14.5678 8.43437 14.5678 8.56571 14.5487 8.64898C14.5233 8.75985 14.4779 8.83173 14.3871 8.97549C13.6369 10.1635 11.4036 13.1667 8.00027 13.1667C4.59693 13.1667 2.36369 10.1635 1.61342 8.97549Z" stroke="#98A2B3" stroke-linecap="round" stroke-linejoin="round"/>
<path d="M8.00027 10.5C9.10484 10.5 10.0003 9.60461 10.0003 8.50004C10.0003 7.39547 9.10484 6.50004 8.00027 6.50004C6.8957 6.50004 6.00027 7.39547 6.00027 8.50004C6.00027 9.60461 6.8957 10.5 8.00027 10.5Z" stroke="#98A2B3" stroke-linecap="round" stroke-linejoin="round"/>
</g>
</g>
</svg>
